<?xml version="1.0" encoding="utf-8"?>
<svg version="1.1" xmlns:xlink="http://www.w3.org/1999/xlink" width="20px" height="20px" xmlns="http://www.w3.org/2000/svg">
  <g transform="matrix(1 0 0 1 -48 -146 )">
    <path d="M 19.2675324799178 2.19765618443489  C 19.2675324799178 2.19765618443489  17.8023041861946 0.732421875  17.8023041861946 0.732421875  C 17.3144157220862 0.244140625  16.6745747525375 0  16.0347338574943 0  C 15.394892962451 0  14.7550528124626 0.244140625  14.2667737161365 0.732031241059303  C 14.2667737161365 0.732031241059303  0.50198992954166 14.4968748092651  0.50198992954166 14.4968748092651  C 0.50198992954166 14.4968748092651  0.00589834136465126 18.9585936069489  0.00589834136465126 18.9585936069489  C -0.056601383896401 19.5203123614192  0.385974805823825 20  0.935581744727545 20  C 0.970347215827169 20  1.00511263337598 19.9980471134768  1.04065935261297 19.9941408634186  C 1.04065935261297 19.9941408634186  5.49923318962717 19.5015621185303  5.49923318962717 19.5015621185303  C 5.49923318962717 19.5015621185303  19.2679234846629 5.73281228542328  19.2679234846629 5.73281228542328  C 20.2440910450973 4.75664041936398  20.2440906725699 3.17382805049419  19.2675324799178 2.19765618443489  Z M 4.9254077982797 18.3078122138977  L 1.2914396484772 18.7105464935303  L 1.69612523834302 15.0710940361023  L 12.0042831708816 4.76289063692093  L 15.2374716059626 7.99609363079071  L 4.9254077982797 18.3078122138977  Z M 18.3839428179402 3.08124989271164  C 18.8710500548658 3.56874987483025  18.8710500548658 4.36171874403954  18.3839428179402 4.84921872615814  C 18.3839428179402 4.84921872615814  16.1210624600278 7.11210966110229  16.1210624600278 7.11210966110229  L 12.8878728328592 3.87890636920929  C 12.8878728328592 3.87890636920929  15.1507531907716 1.61601558327675  15.1507531907716 1.61601558327675  C 15.3866896486262 1.38007808476686  15.7007509481567 1.25  16.0347338574943 1.25  C 16.3687167668318 1.25  16.6823874341446 1.38007808476686  16.918714524217 1.61601558327675  C 16.918714524217 1.61601558327675  18.3839428179402 3.08124989271164  18.3839428179402 3.08124989271164  Z " fill-rule="nonzero" fill="#8261ee" stroke="none" transform="matrix(1 0 0 1 48 146 )" />
  </g>
</svg>