<?xml version="1.0" encoding="utf-8"?>
<svg version="1.1" xmlns:xlink="http://www.w3.org/1999/xlink" width="20px" height="20px" xmlns="http://www.w3.org/2000/svg">
  <g transform="matrix(1 0 0 1 -1162 -23 )">
    <path d="M 16.6666666666667 5.71428571428571  C 16.6666666666667 6.80803571428571  16.3237847222222 7.81994047619047  15.6380208333333 8.75  C 16.0460069444444 8.85416666666666  16.4344618055556 8.99553571428571  16.8033854166667 9.17410714285714  C 17.1723090277778 9.35267857142857  17.55859375 9.62425595238095  17.9622395833333 9.98883928571429  C 18.3658854166667 10.3534226190476  18.7109375 10.7831101190476  18.9973958333333 11.2779017857143  C 19.2838541666667 11.772693452381  19.5225694444444 12.4125744047619  19.7135416666667 13.1975446428571  C 19.9045138888889 13.9825148809524  20 14.8623511904762  20 15.8370535714286  C 20 16.9828869047619  19.5659722222222 17.9631696428571  18.6979166666667 18.7779017857143  C 17.8298611111111 19.5926339285714  16.7838541666667 20  15.5598958333333 20  L 4.44010416666667 20  C 3.21614583333333 20  2.17013888888889 19.5926339285714  1.30208333333333 18.7779017857143  C 0.434027777777778 17.9631696428571  0 16.9828869047619  0 15.8370535714286  C 0 14.8623511904762  0.0954861111111111 13.9825148809524  0.286458333333333 13.1975446428571  C 0.477430555555556 12.4125744047619  0.716145833333333 11.772693452381  1.00260416666667 11.2779017857143  C 1.2890625 10.7831101190476  1.63411458333333 10.3534226190476  2.03776041666667 9.98883928571429  C 2.44140625 9.62425595238095  2.82769097222222 9.35267857142857  3.19661458333333 9.17410714285714  C 3.56553819444444 8.99553571428571  3.95399305555556 8.85416666666666  4.36197916666667 8.75  C 3.67621527777778 7.81994047619047  3.33333333333333 6.80803571428571  3.33333333333333 5.71428571428571  C 3.33333333333333 4.94047619047619  3.50911458333333 4.20200892857143  3.86067708333333 3.49888392857143  C 4.21223958333333 2.79575892857143  4.6875 2.1875  5.28645833333333 1.67410714285714  C 5.88541666666667 1.16071428571429  6.59505208333333 0.753348214285714  7.41536458333333 0.452008928571428  C 8.23567708333333 0.150669642857142  9.09722222222222 0  10 0  C 10.9027777777778 0  11.7643229166667 0.150669642857142  12.5846354166667 0.452008928571428  C 13.4049479166667 0.753348214285714  14.1145833333333 1.16071428571429  14.7135416666667 1.67410714285714  C 15.3125 2.1875  15.7877604166667 2.79575892857143  16.1393229166667 3.49888392857143  C 16.4908854166667 4.20200892857143  16.6666666666667 4.94047619047619  16.6666666666667 5.71428571428571  Z M 13.53515625 2.68415178571429  C 12.55859375 1.84709821428571  11.3802083333333 1.42857142857143  10 1.42857142857143  C 8.61979166666667 1.42857142857143  7.44140625 1.84709821428571  6.46484375 2.68415178571429  C 5.48828125 3.52120535714286  5 4.53125  5 5.71428571428571  C 5 6.89732142857143  5.48828125 7.90736607142857  6.46484375 8.74441964285714  C 7.44140625 9.58147321428571  8.61979166666667 10  10 10  C 11.3802083333333 10  12.55859375 9.58147321428571  13.53515625 8.74441964285714  C 14.51171875 7.90736607142857  15 6.89732142857143  15 5.71428571428571  C 15 4.53125  14.51171875 3.52120535714286  13.53515625 2.68415178571429  Z M 4.44010416666667 18.5714285714286  L 15.5598958333333 18.5714285714286  C 16.3237847222222 18.5714285714286  16.9769965277778 18.305431547619  17.51953125 17.7734375  C 18.0620659722222 17.241443452381  18.3333333333333 16.5959821428571  18.3333333333333 15.8370535714286  C 18.3333333333333 14.0587797619048  17.9926215277778 12.65625  17.3111979166667 11.6294642857143  C 16.6297743055556 10.6026785714286  15.6510416666667 10.063244047619  14.375 10.0111607142857  C 13.1163194444444 10.9561011904762  11.6579861111111 11.4285714285714  10 11.4285714285714  C 8.34201388888889 11.4285714285714  6.88368055555556 10.9561011904762  5.625 10.0111607142857  C 4.34895833333333 10.063244047619  3.37022569444444 10.6026785714286  2.68880208333333 11.6294642857143  C 2.00737847222222 12.65625  1.66666666666667 14.0587797619048  1.66666666666667 15.8370535714286  C 1.66666666666667 16.5959821428571  1.93793402777778 17.241443452381  2.48046875 17.7734375  C 3.02300347222222 18.305431547619  3.67621527777778 18.5714285714286  4.44010416666667 18.5714285714286  Z " fill-rule="nonzero" fill="#797979" stroke="none" transform="matrix(1 0 0 1 1162 23 )" />
  </g>
</svg>