<?xml version="1.0" encoding="utf-8"?>
<svg version="1.1" xmlns:xlink="http://www.w3.org/1999/xlink" width="14px" height="14px" xmlns="http://www.w3.org/2000/svg">
  <g transform="matrix(1 0 0 1 -267 -244 )">
    <path d="M 14 1.5  C 14 0.671875  13.328125 0  12.5 0  C 12.5 0  1.5 0  1.5 0  C 0.671875 0  0 0.671875  0 1.5  C 0 1.5  0 12.5  0 12.5  C 0 13.328125  0.671875 14  1.5 14  C 1.5 14  12.5 14  12.5 14  C 13.328125 14  14 13.328125  14 12.5  C 14 12.5  14 1.5  14 1.5  Z M 13 1.5  C 13 1.5  13 12.5  13 12.5  C 13 12.7750000059605  12.7750000059605 13  12.5 13  C 12.5 13  1.5 13  1.5 13  C 1.22499999403954 13  1 12.7750000059605  1 12.5  C 1 12.5  1 1.5  1 1.5  C 1 1.22499999403954  1.22499999403954 1  1.5 1  C 1.5 1  12.5 1  12.5 1  C 12.7750000059605 1  13 1.22499999403954  13 1.5  Z " fill-rule="nonzero" fill="#000000" stroke="none" transform="matrix(1 0 0 1 267 244 )" />
  </g>
</svg>