<?xml version="1.0" encoding="utf-8"?>
<svg version="1.1" xmlns:xlink="http://www.w3.org/1999/xlink" width="4px" height="14px" xmlns="http://www.w3.org/2000/svg">
  <g transform="matrix(1 0 0 1 -368 -304 )">
    <path d="M 0 2.03225806451613  C 0 3.15564513975574  0.894444465637207 4.06451612903226  2 4.06451612903226  C 3.10555553436279 4.06451612903226  4 3.15564513975574  4 2.03225806451613  C 4 0.908870989276517  3.10555553436279 0  2 0  C 0.894444465637207 0  0 0.908870989276517  0 2.03225806451613  Z M 0.888888888888889 2.03225806451613  C 0.888888888888889 1.40846773116819  1.38611110051473 0.903225806451613  2 0.903225806451613  C 2.61388889948527 0.903225806451613  3.11111111111111 1.40846773116819  3.11111111111111 2.03225806451613  C 3.11111111111111 2.65604839786407  2.61388889948527 3.16129032258065  2 3.16129032258065  C 1.38611110051473 3.16129032258065  0.888888888888889 2.65604839786407  0.888888888888889 2.03225806451613  Z M 4 7  C 4 5.87661292476039  3.10555553436279 4.96774193548387  2 4.96774193548387  C 0.894444465637207 4.96774193548387  0 5.87661292476039  0 7  C 0 8.12338707523961  0.894444465637207 9.03225806451613  2 9.03225806451613  C 3.10555553436279 9.03225806451613  4 8.12338707523961  4 7  Z M 3.11111111111111 7  C 3.11111111111111 7.62379033334794  2.61388889948527 8.12903225806452  2 8.12903225806452  C 1.38611110051473 8.12903225806452  0.888888888888889 7.62379033334794  0.888888888888889 7  C 0.888888888888889 6.37620966665206  1.38611110051473 5.87096774193548  2 5.87096774193548  C 2.61388889948527 5.87096774193548  3.11111111111111 6.37620966665206  3.11111111111111 7  Z M 4 11.9677419354839  C 4 10.8443548602443  3.10555553436279 9.93548387096774  2 9.93548387096774  C 0.894444465637207 9.93548387096774  0 10.8443548602443  0 11.9677419354839  C 0 13.0911290107235  0.894444465637207 14  2 14  C 3.10555553436279 14  4 13.0911290107235  4 11.9677419354839  Z M 3.11111111111111 11.9677419354839  C 3.11111111111111 12.5915322688318  2.61388889948527 13.0967741935484  2 13.0967741935484  C 1.38611110051473 13.0967741935484  0.888888888888889 12.5915322688318  0.888888888888889 11.9677419354839  C 0.888888888888889 11.3439516021359  1.38611110051473 10.8387096774194  2 10.8387096774194  C 2.61388889948527 10.8387096774194  3.11111111111111 11.3439516021359  3.11111111111111 11.9677419354839  Z " fill-rule="nonzero" fill="#333333" stroke="none" transform="matrix(1 0 0 1 368 304 )" />
  </g>
</svg>