<?xml version="1.0" encoding="utf-8"?>
<svg version="1.1" xmlns:xlink="http://www.w3.org/1999/xlink" width="20px" height="20px" xmlns="http://www.w3.org/2000/svg">
  <g transform="matrix(1 0 0 1 -48 -209 )">
    <path d="M 1.875 0  C 0.839453116059303 0  0 0.959374989782061  0 2.14285714285714  C 0 2.14285714285714  0 17.8571428571429  0 17.8571428571429  C 0 19.0406250102179  0.839453116059303 20  1.875 20  C 1.875 20  18.125 20  18.125 20  C 19.1605468839407 20  20 19.0406250102179  20 17.8571428571429  C 20 17.8571428571429  20 2.14285714285714  20 2.14285714285714  C 20 0.959374989782061  19.1605468839407 0  18.125 0  C 18.125 0  1.875 0  1.875 0  Z M 18.125 1.42857142857143  C 18.4701953083277 1.42857142857143  18.75 1.74834821905409  18.75 2.14285714285714  C 18.75 2.14285714285714  18.75 6.19049140385219  18.75 6.19049140385219  L 7.5 6.19049140385219  L 7.5 1.42857142857143  C 7.5 1.42857142857143  18.125 1.42857142857143  18.125 1.42857142857143  Z M 18.75 8  L 18.75 12  L 7.5 12  L 7.5 8  L 18.75 8  Z M 1.25 12.3809828077044  L 1.25 7.61906283242362  L 6.25 7.61906283242362  L 6.25 12.3809828077044  L 1.25 12.3809828077044  Z M 1.875 1.42857142857143  C 1.875 1.42857142857143  6.25 1.42857142857143  6.25 1.42857142857143  L 6.25 6.19049140385219  L 1.25 6.19049140385219  C 1.25 6.19049140385219  1.25 2.14285714285714  1.25 2.14285714285714  C 1.25 1.74834821905409  1.52980469167233 1.42857142857143  1.875 1.42857142857143  Z M 1.875 18.5714285714286  C 1.52980469167233 18.5714285714286  1.25 18.2516517809459  1.25 17.8571428571429  C 1.25 17.8571428571429  1.25 13.8095092773438  1.25 13.8095092773438  L 6.25 13.8095092773438  L 6.25 18.5714285714286  C 6.25 18.5714285714286  1.875 18.5714285714286  1.875 18.5714285714286  Z M 18.125 18.5714285714286  C 18.125 18.5714285714286  7.5 18.5714285714286  7.5 18.5714285714286  L 7.5 13.8095092773438  L 18.75 13.8095092773438  C 18.75 13.8095092773438  18.75 17.8571428571429  18.75 17.8571428571429  C 18.75 18.2516517809459  18.4701953083277 18.5714285714286  18.125 18.5714285714286  Z " fill-rule="nonzero" fill="#8261ee" stroke="none" transform="matrix(1 0 0 1 48 209 )" />
  </g>
</svg>