<?xml version="1.0" encoding="utf-8"?>
<svg version="1.1" xmlns:xlink="http://www.w3.org/1999/xlink" width="14px" height="14px" xmlns="http://www.w3.org/2000/svg">
  <g transform="matrix(1 0 0 1 -299 -244 )">
    <path d="M 9.07322311401367 11.748429775238  C 9.12010720744729 11.7894533569925  9.18369587510824 11.8125  9.25 11.8125  C 9.25 11.8125  9.75 11.8125  9.75 11.8125  C 9.81630412489176 11.8125  9.87989279255271 11.7894533569925  9.92677688598633 11.748429775238  C 9.97366097941995 11.7074061934836  10 11.6517661092803  10 11.59375  C 10 11.59375  10 4.15625  10 4.15625  C 10 4.09823389071971  9.97366097941995 4.04259380651638  9.92677688598633 4.00157022476196  C 9.87989279255271 3.96054664300755  9.81630412489176 3.9375  9.75 3.9375  C 9.75 3.9375  9.25 3.9375  9.25 3.9375  C 9.18369587510824 3.9375  9.12010720744729 3.96054664300755  9.07322311401367 4.00157022476196  C 9.02633902058005 4.04259380651638  9 4.09823389071971  9 4.15625  C 9 4.15625  9 11.59375  9 11.59375  C 9 11.6517661092803  9.02633902058005 11.7074061934836  9.07322311401367 11.748429775238  Z M 4.07322311401367 11.748429775238  C 4.12010720744729 11.7894533569925  4.18369587510824 11.8125  4.25 11.8125  C 4.25 11.8125  4.75 11.8125  4.75 11.8125  C 4.81630412489176 11.8125  4.87989279255271 11.7894533569925  4.92677688598633 11.748429775238  C 4.97366097941995 11.7074061934836  5 11.6517661092803  5 11.59375  C 5 11.59375  5 4.15625  5 4.15625  C 5 4.09823389071971  4.97366097941995 4.04259380651638  4.92677688598633 4.00157022476196  C 4.87989279255271 3.96054664300755  4.81630412489176 3.9375  4.75 3.9375  C 4.75 3.9375  4.25 3.9375  4.25 3.9375  C 4.18369587510824 3.9375  4.12010720744729 3.96054664300755  4.07322311401367 4.00157022476196  C 4.02633902058005 4.04259380651638  4 4.09823389071971  4 4.15625  C 4 4.15625  4 11.59375  4 11.59375  C 4 11.6517661092803  4.02633902058005 11.7074061934836  4.07322311401367 11.748429775238  Z M 13.9267768859863 1.81407043337822  C 13.8798927925527 1.7730468516238  13.8163041248918 1.75  13.75 1.75  C 13.75 1.75  10.5 1.75  10.5 1.75  C 10.5 1.75  9.44999980926514 0.525000020861626  9.44999980926514 0.525000020861626  C 9.31027922034264 0.361992675811052  9.12910339236259 0.229688193649054  8.92082023620605 0.138564312830567  C 8.71253708004951 0.0474404320120811  8.48286764323711 0  8.25 0  C 8.25 0  5.75 0  5.75 0  C 5.51713235676289 0  5.28746291995049 0.0474404320120811  5.07917976379395 0.138564312830567  C 4.87089660763741 0.229688193649054  4.68972077965736 0.361992675811052  4.55000019073486 0.525000020861626  C 4.55000019073486 0.525000020861626  3.5 1.75  3.5 1.75  C 3.5 1.75  0.25 1.75  0.25 1.75  C 0.183695875108242 1.75  0.120107401162386 1.7730468516238  0.0732233077287674 1.81407043337822  C 0.0263392142951488 1.85509401513264  0 1.91073389071971  0 1.96875  C 0 1.96875  0 2.40625  0 2.40625  C 0 2.46426610928029  0.0263392142951488 2.51990598486736  0.0732233077287674 2.56092956662178  C 0.120107401162386 2.6019531483762  0.183695875108242 2.625  0.25 2.625  C 0.25 2.625  1 2.625  1 2.625  C 1 2.625  1 12.6875  1 12.6875  C 1 13.0355966426432  1.15803530812263 13.3694363199174  1.43933987617493 13.6155778169632  C 1.72064444422722 13.861719314009  2.10217526555061 14  2.5 14  C 2.5 14  11.5 14  11.5 14  C 11.8978247344494 14  12.2793557941914 13.861719314009  12.5606603622437 13.6155778169632  C 12.8419649302959 13.3694363199174  13 13.0355966426432  13 12.6875  C 13 12.6875  13 2.625  13 2.625  C 13 2.625  13.75 2.625  13.75 2.625  C 13.8163041248918 2.625  13.8798927925527 2.6019531483762  13.9267768859863 2.56092956662178  C 13.9736609794199 2.51990598486736  14 2.46426610928029  14 2.40625  C 14 2.40625  14 1.96875  14 1.96875  C 14 1.91073389071971  13.9736609794199 1.85509401513264  13.9267768859863 1.81407043337822  Z M 4.75 1.75  C 4.75 1.75  5.34999990463257 1.05000004172325  5.34999990463257 1.05000004172325  C 5.39674042537808 0.995820519048721  5.45716708153486 0.951832770835608  5.52655696868896 0.921474695205688  C 5.59594685584307 0.891116619575769  5.67242012172937 0.875210652468013  5.75 0.875  C 5.75 0.875  8.25 0.875  8.25 0.875  C 8.32757987827063 0.875210652468013  8.40405314415693 0.891116619575769  8.47344303131104 0.921474695205688  C 8.54283291846514 0.951832770835608  8.60325909778476 0.995820519048721  8.64999961853027 1.05000004172325  C 8.64999961853027 1.05000004172325  9.25 1.75  9.25 1.75  L 4.75 1.75  Z M 12 2.625  C 12 2.625  12 12.6875  12 12.6875  C 12 12.8035322185606  11.9473219588399 12.9148123869672  11.8535537719727 12.9968595504761  C 11.7597855851054 13.0789067139849  11.6326082497835 13.125  11.5 13.125  C 11.5 13.125  2.5 13.125  2.5 13.125  C 2.36739175021648 13.125  2.24021489173174 13.0789067139849  2.1464467048645 12.9968595504761  C 2.05267851799726 12.9148123869672  2 12.8035322185606  2 12.6875  C 2 12.6875  2 2.625  2 2.625  L 12 2.625  Z M 6.57322311401367 11.748429775238  C 6.62010720744729 11.7894533569925  6.68369587510824 11.8125  6.75 11.8125  C 6.75 11.8125  7.25 11.8125  7.25 11.8125  C 7.31630412489176 11.8125  7.37989279255271 11.7894533569925  7.42677688598633 11.748429775238  C 7.47366097941995 11.7074061934836  7.5 11.6517661092803  7.5 11.59375  C 7.5 11.59375  7.5 4.15625  7.5 4.15625  C 7.5 4.09823389071971  7.47366097941995 4.04259380651638  7.42677688598633 4.00157022476196  C 7.37989279255271 3.96054664300755  7.31630412489176 3.9375  7.25 3.9375  C 7.25 3.9375  6.75 3.9375  6.75 3.9375  C 6.68369587510824 3.9375  6.62010720744729 3.96054664300755  6.57322311401367 4.00157022476196  C 6.52633902058005 4.04259380651638  6.5 4.09823389071971  6.5 4.15625  C 6.5 4.15625  6.5 11.59375  6.5 11.59375  C 6.5 11.6517661092803  6.52633902058005 11.7074061934836  6.57322311401367 11.748429775238  Z " fill-rule="nonzero" fill="#000000" stroke="none" transform="matrix(1 0 0 1 299 244 )" />
  </g>
</svg>