<?xml version="1.0" encoding="utf-8"?>
<svg version="1.1" xmlns:xlink="http://www.w3.org/1999/xlink" width="14px" height="14px" xmlns="http://www.w3.org/2000/svg">
  <g transform="matrix(1 0 0 1 -334 -304 )">
    <path d="M 13.4872727359425 1.53835932910442  C 13.4872727359425 1.53835932910442  12.4616129303362 0.5126953125  12.4616129303362 0.5126953125  C 12.1200910054604 0.1708984375  11.6722023267763 0  11.224313700246 0  C 10.7764250737157 0  10.3285369687238 0.1708984375  9.98674160129556 0.512421868741512  C 9.98674160129556 0.512421868741512  0.351392950679162 10.1478123664856  0.351392950679162 10.1478123664856  C 0.351392950679162 10.1478123664856  0.00412883895525588 13.2710155248642  0.00412883895525588 13.2710155248642  C -0.0396209687274807 13.6642186529934  0.270182364076677 14  0.654907221309282 14  C 0.679243051079018 14  0.703578843363186 13.9986329794338  0.728461546829077 13.995898604393  C 0.728461546829077 13.995898604393  3.84946323273902 13.6510934829712  3.84946323273902 13.6510934829712  C 3.84946323273902 13.6510934829712  13.487546439264 4.0129685997963  13.487546439264 4.0129685997963  C 14.1708637315681 3.32964829355478  14.1708634707989 2.22167963534594  13.4872727359425 1.53835932910442  Z M 3.44778545879579 12.8154685497284  L 0.904007753934038 13.0973825454712  L 1.18728766684012 10.5497658252716  L 8.40299821961711 3.33402344584465  L 10.6662301241738 5.5972655415535  L 3.44778545879579 12.8154685497284  Z M 12.8687599725581 2.15687492489815  C 13.2097350384061 2.49812491238117  13.2097350384061 3.05320312082767  12.8687599725581 3.3944531083107  C 12.8687599725581 3.3944531083107  11.2847437220195 4.97847676277161  11.2847437220195 4.97847676277161  L 9.02151098300143 2.7152344584465  C 9.02151098300143 2.7152344584465  10.6055272335401 1.13121090829372  10.6055272335401 1.13121090829372  C 10.7706827540383 0.966054659336805  10.9905256637097 0.875  11.224313700246 0.875  C 11.4581017367823 0.875  11.6776712039012 0.966054659336805  11.8431001669519 1.13121090829372  C 11.8431001669519 1.13121090829372  12.8687599725581 2.15687492489815  12.8687599725581 2.15687492489815  Z " fill-rule="nonzero" fill="#333333" stroke="none" transform="matrix(1 0 0 1 334 304 )" />
  </g>
</svg>